<svg xmlns="http://www.w3.org/2000/svg" width="219" height="26" viewBox="0 0 219 26" fill="none">
  <g clip-path="url(#clip0_51_161)">
    <path d="M4.09836 16.7886C58.6809 12.8867 113.611 11.3553 168.738 12.2531C176.333 12.3933 183.978 12.5031 191.571 12.6755C199.556 12.8635 207.678 13.3151 215.637 12.9209C218.88 12.7592 219.04 9.95686 215.77 9.56874C208.84 8.74473 201.732 8.68847 194.728 8.50717C187.723 8.32587 180.718 8.14457 173.66 8.09026C159.837 7.96106 146.008 7.99303 132.174 8.15393C104.36 8.46989 76.5245 9.30157 48.8169 10.6226C33.4397 11.3679 18.1051 12.2763 2.76278 13.378C-0.630592 13.6307 0.656037 17.0393 4.04813 16.8189L4.09836 16.7886Z" fill="white"/>
  </g>
  <defs>
    <clipPath id="clip0_51_161">
      <rect width="217" height="16" fill="white" transform="translate(1.40283 0.701202) rotate(2.27399)"/>
    </clipPath>
  </defs>
</svg>