<svg width="79" height="79" viewBox="0 0 79 79" fill="none" xmlns="http://www.w3.org/2000/svg">
<g filter="url(#filter0_d_51_181)">
<rect x="20" y="10" width="38.4762" height="39" rx="19.2381" fill="#F5F5F5" shape-rendering="crispEdges"/>
<g clip-path="url(#clip0_51_181)">
<path d="M46.476 29.4983V29.5018C46.476 29.533 46.4751 29.5633 46.4733 29.5936C46.4733 29.5979 46.4733 29.6023 46.4724 29.6057C46.4707 29.6369 46.468 29.6673 46.4644 29.6976C46.4599 29.7305 46.4555 29.7634 46.4492 29.7963C46.4439 29.8293 46.4367 29.8622 46.4287 29.8942C46.4216 29.9254 46.4135 29.9566 46.4037 29.9878C46.4037 29.9913 46.4019 29.9947 46.4002 29.9982C46.3823 30.058 46.36 30.1177 46.335 30.1758C46.3189 30.2122 46.302 30.2485 46.2832 30.2849C46.2699 30.3101 46.2556 30.3352 46.2413 30.3594C46.227 30.3846 46.2118 30.4088 46.1949 30.4331C46.1556 30.4946 46.111 30.5535 46.0619 30.6107C46.0387 30.6375 46.0146 30.6635 45.9905 30.6878C45.9664 30.7138 45.9414 30.738 45.9147 30.7614C45.8897 30.7848 45.8629 30.8082 45.8352 30.8307C45.8067 30.8532 45.7772 30.8758 45.7469 30.8974L45.7442 30.8992L34.8404 38.6648C34.5227 38.8909 34.1524 39.0001 33.7865 39.0001C33.2367 39.0001 32.695 38.7549 32.3452 38.2923C31.7624 37.5213 31.9338 36.4366 32.7289 35.8701L41.6729 29.5001L32.7289 23.13C31.9338 22.5635 31.7624 21.4797 32.3452 20.7078C32.9288 19.9359 34.0453 19.7696 34.8404 20.3353L45.7442 28.101C45.7754 28.1217 45.8058 28.1451 45.8352 28.1694C45.8629 28.1919 45.8897 28.2153 45.9147 28.2387C45.9414 28.2621 45.9664 28.2863 45.9905 28.3123C46.0146 28.3366 46.0387 28.3626 46.0619 28.3894C46.0851 28.4172 46.1083 28.4458 46.1306 28.4752C46.1529 28.5055 46.1753 28.5358 46.1949 28.567C46.2118 28.5913 46.227 28.6155 46.2413 28.6407C46.2556 28.6649 46.2699 28.6901 46.2832 28.7152C46.302 28.7516 46.3189 28.7879 46.335 28.8243C46.3475 28.8538 46.36 28.8841 46.3707 28.9144C46.3814 28.943 46.3912 28.9725 46.4002 29.0019C46.4019 29.0045 46.4037 29.008 46.4037 29.0123C46.4135 29.0435 46.4216 29.0747 46.4287 29.1059C46.4367 29.1379 46.4439 29.1709 46.4492 29.2038C46.4555 29.2367 46.4599 29.2696 46.4644 29.3025C46.468 29.3329 46.4707 29.3632 46.4724 29.3944C46.4733 29.3987 46.4733 29.403 46.4733 29.4065C46.4751 29.4368 46.476 29.4671 46.476 29.4983Z" fill="#8194D9"/>
</g>
</g>
<defs>
<filter id="filter0_d_51_181" x="0" y="0" width="78.4761" height="79" filterUnits="userSpaceOnUse" color-interpolation-filters="sRGB">
<feFlood flood-opacity="0" result="BackgroundImageFix"/>
<feColorMatrix in="SourceAlpha" type="matrix" values="0 0 0 0 0 0 0 0 0 0 0 0 0 0 0 0 0 0 127 0" result="hardAlpha"/>
<feOffset dy="10"/>
<feGaussianBlur stdDeviation="10"/>
<feComposite in2="hardAlpha" operator="out"/>
<feColorMatrix type="matrix" values="0 0 0 0 0 0 0 0 0 0 0 0 0 0 0 0 0 0 0.1 0"/>
<feBlend mode="normal" in2="BackgroundImageFix" result="effect1_dropShadow_51_181"/>
<feBlend mode="normal" in="SourceGraphic" in2="effect1_dropShadow_51_181" result="shape"/>
</filter>
<clipPath id="clip0_51_181">
<rect width="14.4762" height="19" fill="white" transform="translate(32 20)"/>
</clipPath>
</defs>
</svg>
