<svg width="79" height="79" viewBox="0 0 79 79" fill="none" xmlns="http://www.w3.org/2000/svg">
<g filter="url(#filter0_d_51_177)">
<rect x="58.4762" y="49" width="38.4762" height="39" rx="19.2381" transform="rotate(-180 58.4762 49)" fill="#F5F5F5" shape-rendering="crispEdges"/>
<g clip-path="url(#clip0_51_177)">
<path d="M32.0001 29.5017L32.0001 29.4982C32.0001 29.467 32.001 29.4367 32.0027 29.4064C32.0027 29.4021 32.0027 29.3977 32.0036 29.3943C32.0054 29.3631 32.0081 29.3327 32.0117 29.3024C32.0161 29.2695 32.0206 29.2366 32.0268 29.2037C32.0322 29.1707 32.0393 29.1378 32.0474 29.1058C32.0545 29.0746 32.0625 29.0434 32.0724 29.0122C32.0724 29.0087 32.0741 29.0053 32.0759 29.0018C32.0938 28.942 32.1161 28.8823 32.1411 28.8242C32.1571 28.7878 32.1741 28.7514 32.1928 28.7151C32.2062 28.6899 32.2205 28.6648 32.2348 28.6406C32.2491 28.6154 32.2642 28.5912 32.2812 28.5669C32.3204 28.5054 32.3651 28.4465 32.4142 28.3893C32.4374 28.3625 32.4615 28.3365 32.4855 28.3122C32.5096 28.2862 32.5346 28.262 32.5614 28.2386C32.5864 28.2152 32.6132 28.1918 32.6408 28.1693C32.6694 28.1468 32.6988 28.1242 32.7292 28.1026L32.7319 28.1008L43.6356 20.3352C43.9533 20.1091 44.3237 19.9999 44.6896 19.9999C45.2393 19.9999 45.7811 20.2451 46.1309 20.7077C46.7136 21.4787 46.5423 22.5634 45.7471 23.1299L36.8032 29.4999L45.7471 35.87C46.5423 36.4365 46.7136 37.5203 46.1309 38.2922C45.5472 39.0641 44.4308 39.2304 43.6356 38.6647L32.7319 30.899C32.7006 30.8782 32.6703 30.8549 32.6408 30.8306C32.6132 30.8081 32.5864 30.7847 32.5614 30.7613C32.5346 30.7379 32.5096 30.7137 32.4855 30.6877C32.4615 30.6634 32.4374 30.6374 32.4142 30.6106C32.391 30.5828 32.3677 30.5542 32.3454 30.5248C32.3231 30.4945 32.3008 30.4642 32.2812 30.433C32.2642 30.4087 32.2491 30.3845 32.2348 30.3593C32.2205 30.3351 32.2062 30.3099 32.1928 30.2848C32.1741 30.2484 32.1571 30.2121 32.1411 30.1757C32.1286 30.1462 32.1161 30.1159 32.1054 30.0856C32.0947 30.057 32.0848 30.0275 32.0759 29.9981C32.0741 29.9955 32.0724 29.992 32.0724 29.9877C32.0625 29.9565 32.0545 29.9253 32.0474 29.8941C32.0393 29.8621 32.0322 29.8291 32.0268 29.7962C32.0206 29.7633 32.0161 29.7304 32.0117 29.6975C32.0081 29.6671 32.0054 29.6368 32.0036 29.6056C32.0027 29.6013 32.0027 29.597 32.0027 29.5935C32.001 29.5632 32.0001 29.5329 32.0001 29.5017Z" fill="#8194D9"/>
</g>
</g>
<defs>
<filter id="filter0_d_51_177" x="0" y="0" width="78.4762" height="79" filterUnits="userSpaceOnUse" color-interpolation-filters="sRGB">
<feFlood flood-opacity="0" result="BackgroundImageFix"/>
<feColorMatrix in="SourceAlpha" type="matrix" values="0 0 0 0 0 0 0 0 0 0 0 0 0 0 0 0 0 0 127 0" result="hardAlpha"/>
<feOffset dy="10"/>
<feGaussianBlur stdDeviation="10"/>
<feComposite in2="hardAlpha" operator="out"/>
<feColorMatrix type="matrix" values="0 0 0 0 0 0 0 0 0 0 0 0 0 0 0 0 0 0 0.1 0"/>
<feBlend mode="normal" in2="BackgroundImageFix" result="effect1_dropShadow_51_177"/>
<feBlend mode="normal" in="SourceGraphic" in2="effect1_dropShadow_51_177" result="shape"/>
</filter>
<clipPath id="clip0_51_177">
<rect width="14.4762" height="19" fill="white" transform="translate(46.4762 39) rotate(-180)"/>
</clipPath>
</defs>
</svg>
