<svg width="40" height="40" viewBox="0 0 40 40" fill="none" xmlns="http://www.w3.org/2000/svg">
<g filter="url(#filter0_i_52_287)">
<circle cx="20" cy="20" r="20" fill="#8194D9"/>
</g>
<g filter="url(#filter1_d_52_287)">
<circle cx="20" cy="20" r="12" fill="#2C4395"/>
</g>
<path d="M16.0604 24.534C16.4684 24.21 16.6544 24.06 16.6184 24.084C17.7944 23.112 18.7184 22.314 19.3904 21.69C20.0744 21.066 20.6504 20.412 21.1184 19.728C21.5864 19.044 21.8204 18.378 21.8204 17.73C21.8204 17.238 21.7064 16.854 21.4784 16.578C21.2504 16.302 20.9084 16.164 20.4524 16.164C19.9964 16.164 19.6364 16.338 19.3724 16.686C19.1204 17.022 18.9944 17.502 18.9944 18.126H16.0244C16.0484 17.106 16.2644 16.254 16.6724 15.57C17.0924 14.886 17.6384 14.382 18.3104 14.058C18.9944 13.734 19.7504 13.572 20.5784 13.572C22.0064 13.572 23.0804 13.938 23.8004 14.67C24.5324 15.402 24.8984 16.356 24.8984 17.532C24.8984 18.816 24.4604 20.01 23.5844 21.114C22.7084 22.206 21.5924 23.274 20.2364 24.318H25.0964V26.82H16.0604V24.534Z" fill="white"/>
<defs>
<filter id="filter0_i_52_287" x="0" y="0" width="40" height="44" filterUnits="userSpaceOnUse" color-interpolation-filters="sRGB">
<feFlood flood-opacity="0" result="BackgroundImageFix"/>
<feBlend mode="normal" in="SourceGraphic" in2="BackgroundImageFix" result="shape"/>
<feColorMatrix in="SourceAlpha" type="matrix" values="0 0 0 0 0 0 0 0 0 0 0 0 0 0 0 0 0 0 127 0" result="hardAlpha"/>
<feOffset dy="4"/>
<feGaussianBlur stdDeviation="2"/>
<feComposite in2="hardAlpha" operator="arithmetic" k2="-1" k3="1"/>
<feColorMatrix type="matrix" values="0 0 0 0 0 0 0 0 0 0 0 0 0 0 0 0 0 0 0.15 0"/>
<feBlend mode="normal" in2="shape" result="effect1_innerShadow_52_287"/>
</filter>
<filter id="filter1_d_52_287" x="4" y="8" width="32" height="32" filterUnits="userSpaceOnUse" color-interpolation-filters="sRGB">
<feFlood flood-opacity="0" result="BackgroundImageFix"/>
<feColorMatrix in="SourceAlpha" type="matrix" values="0 0 0 0 0 0 0 0 0 0 0 0 0 0 0 0 0 0 127 0" result="hardAlpha"/>
<feOffset dy="4"/>
<feGaussianBlur stdDeviation="2"/>
<feComposite in2="hardAlpha" operator="out"/>
<feColorMatrix type="matrix" values="0 0 0 0 0 0 0 0 0 0 0 0 0 0 0 0 0 0 0.15 0"/>
<feBlend mode="normal" in2="BackgroundImageFix" result="effect1_dropShadow_52_287"/>
<feBlend mode="normal" in="SourceGraphic" in2="effect1_dropShadow_52_287" result="shape"/>
</filter>
</defs>
</svg>
