<svg width="40" height="40" viewBox="0 0 40 40" fill="none" xmlns="http://www.w3.org/2000/svg">
<g filter="url(#filter0_i_52_312)">
<circle cx="20" cy="20" r="20" fill="#8194D9"/>
</g>
<g filter="url(#filter1_d_52_312)">
<circle cx="20" cy="20" r="12" fill="#2C4395"/>
</g>
<path d="M24.2085 16.542H18.5925V19.026C18.8325 18.762 19.1685 18.546 19.6005 18.378C20.0325 18.21 20.5005 18.126 21.0045 18.126C21.9045 18.126 22.6485 18.33 23.2365 18.738C23.8365 19.146 24.2745 19.674 24.5505 20.322C24.8265 20.97 24.9645 21.672 24.9645 22.428C24.9645 23.832 24.5685 24.948 23.7765 25.776C22.9845 26.592 21.8685 27 20.4285 27C19.4685 27 18.6345 26.838 17.9265 26.514C17.2185 26.178 16.6725 25.716 16.2885 25.128C15.9045 24.54 15.6945 23.862 15.6585 23.094H18.6645C18.7365 23.466 18.9105 23.778 19.1865 24.03C19.4625 24.27 19.8405 24.39 20.3205 24.39C20.8845 24.39 21.3045 24.21 21.5805 23.85C21.8565 23.49 21.9945 23.01 21.9945 22.41C21.9945 21.822 21.8505 21.372 21.5625 21.06C21.2745 20.748 20.8545 20.592 20.3025 20.592C19.8945 20.592 19.5585 20.694 19.2945 20.898C19.0305 21.09 18.8565 21.348 18.7725 21.672H15.8025V13.842H24.2085V16.542Z" fill="white"/>
<defs>
<filter id="filter0_i_52_312" x="0" y="0" width="40" height="44" filterUnits="userSpaceOnUse" color-interpolation-filters="sRGB">
<feFlood flood-opacity="0" result="BackgroundImageFix"/>
<feBlend mode="normal" in="SourceGraphic" in2="BackgroundImageFix" result="shape"/>
<feColorMatrix in="SourceAlpha" type="matrix" values="0 0 0 0 0 0 0 0 0 0 0 0 0 0 0 0 0 0 127 0" result="hardAlpha"/>
<feOffset dy="4"/>
<feGaussianBlur stdDeviation="2"/>
<feComposite in2="hardAlpha" operator="arithmetic" k2="-1" k3="1"/>
<feColorMatrix type="matrix" values="0 0 0 0 0 0 0 0 0 0 0 0 0 0 0 0 0 0 0.15 0"/>
<feBlend mode="normal" in2="shape" result="effect1_innerShadow_52_312"/>
</filter>
<filter id="filter1_d_52_312" x="4" y="8" width="32" height="32" filterUnits="userSpaceOnUse" color-interpolation-filters="sRGB">
<feFlood flood-opacity="0" result="BackgroundImageFix"/>
<feColorMatrix in="SourceAlpha" type="matrix" values="0 0 0 0 0 0 0 0 0 0 0 0 0 0 0 0 0 0 127 0" result="hardAlpha"/>
<feOffset dy="4"/>
<feGaussianBlur stdDeviation="2"/>
<feComposite in2="hardAlpha" operator="out"/>
<feColorMatrix type="matrix" values="0 0 0 0 0 0 0 0 0 0 0 0 0 0 0 0 0 0 0.15 0"/>
<feBlend mode="normal" in2="BackgroundImageFix" result="effect1_dropShadow_52_312"/>
<feBlend mode="normal" in="SourceGraphic" in2="effect1_dropShadow_52_312" result="shape"/>
</filter>
</defs>
</svg>
