<svg xmlns="http://www.w3.org/2000/svg" width="218" height="25" viewBox="0 0 218 25" fill="none">
  <g clip-path="url(#clip0_54_394)">
    <path d="M3.33042 16.0874C57.913 12.1855 112.843 10.6541 167.97 11.5519C175.565 11.692 183.21 11.8019 190.803 11.9743C198.788 12.1623 206.91 12.6139 214.869 12.2197C218.112 12.0579 218.272 9.25565 215.002 8.86753C208.072 8.04352 200.964 7.98726 193.96 7.80596C186.955 7.62466 179.95 7.44336 172.892 7.38905C159.069 7.25985 145.24 7.29182 131.407 7.45272C103.592 7.76868 75.7565 8.60036 48.049 9.92137C32.6718 10.6667 17.3372 11.575 1.99483 12.6768C-1.39854 12.9295 -0.111907 16.3381 3.28018 16.1176L3.33042 16.0874Z" fill="#8838B9"/>
  </g>
  <defs>
    <clipPath id="clip0_54_394">
      <rect width="217" height="16" fill="white" transform="translate(0.634888) rotate(2.27399)"/>
    </clipPath>
  </defs>
</svg>