<svg xmlns="http://www.w3.org/2000/svg" width="217" height="9" viewBox="0 0 217 9" fill="none">
  <g clip-path="url(#clip0_51_149)">
    <path d="M3.33166 8.98185C57.7164 5.57056 112.542 3.48387 167.662 2.75806C175.256 2.66734 182.899 2.55847 190.494 2.48589C198.48 2.41331 206.613 2.48589 214.55 2.08669C217.784 1.92339 217.833 0.344758 214.55 0.199597C207.593 -0.108871 200.489 0.0181452 193.482 0.0725806C186.476 0.127016 179.47 0.181452 172.414 0.308468C158.598 0.544355 144.781 0.870968 130.964 1.27016C103.184 2.06855 75.4037 3.15726 47.7704 4.51815C32.4348 5.28024 17.1483 6.13306 1.8618 7.09476C-1.51887 7.3125 -0.0980058 9.1996 3.28267 9L3.33166 8.98185Z" fill="#8194D9"/>
  </g>
  <defs>
    <clipPath id="clip0_51_149">
      <rect width="217" height="9" fill="white"/>
    </clipPath>
  </defs>
</svg>